<?xml version="1.0" encoding="UTF-8" standalone="no"?>
<svg
   xmlns:dc="http://purl.org/dc/elements/1.1/"
   xmlns:cc="http://creativecommons.org/ns#"
   xmlns:rdf="http://www.w3.org/1999/02/22-rdf-syntax-ns#"
   xmlns:svg="http://www.w3.org/2000/svg"
   xmlns="http://www.w3.org/2000/svg"
   height="78.066185"
   width="82.217186"
   id="svg3386"
   xml:space="preserve"
   viewBox="0 0 82.217186 78.066185"
   y="0px"
   x="0px"
   version="1.1"
   class="codewars"><metadata
     id="metadata3396"><rdf:RDF><cc:Work
         rdf:about=""><dc:format>image/svg+xml</dc:format><dc:type
           rdf:resource="http://purl.org/dc/dcmitype/StillImage" /><dc:title></dc:title></cc:Work></rdf:RDF></metadata><defs
     id="defs3394" /><g
     transform="translate(-2.0755274,-2.8609813)"
     style="fill:#111111;fill-opacity:1"
     id="g3388"><path
       style="fill:#111111;fill-opacity:1"
       id="path3390"
       d="M 14.4,71.1 C 13.2,69 10.5,68.4 11,65.6 11,65.4 10.6,65 10.4,65 6.3,64.2 7.6,60.1 6.1,57.8 5.8,57.3 6.3,56.2 6,55.9 4,53.9 5.8,52.8 7,51.6 6.4,50.9 5.7,50.2 5.1,49.5 6.6,48.7 5,48 5.1,47.3 5.4,44.9 4.5,43 3.1,41.1 2.4,40.1 1.3,39 2.9,37.3 3.7,36.5 5.1,34.6 3.3,32.6 2.2,31.4 4.4,30.3 4.7,29 4.7,28.9 6,28.9 5.9,28.6 4.8,24.9 8.7,24.2 9.8,21.8 c 0.4,-0.9 1.6,-1.3 2,-2.2 0.2,-0.6 -1.6,-1.3 -0.4,-2.5 0.8,0.6 1.6,1.4 2.5,1.8 1,0.4 1.4,-1.3 2.6,-1 0.6,0.2 1.4,0.2 1.5,-0.7 0.1,-1.5 1.4,-2.3 2.4,-3 1.9,-1.4 2.2,-4.2 4.3,-5.2 1.9,-0.9 3.6,-1.9 5.1,-3.3 1.8,-1.5 3.8,-1.2 6,0.1 0.3,-0.4 0.7,-0.9 1.2,-1.3 0.7,-0.6 1.4,-2.1 2.2,-1.5 1.1,0.7 2,0.2 3,0.4 1.4,0.3 2.8,1.8 4.5,0.5 0.5,-0.4 1.2,0.2 1.6,0.7 2.8,3.6 6.8,3.9 10.7,4.4 1.3,0.2 2.7,0.1 4,0 1.1,-0.1 1.9,0.2 2.6,1.1 1,1.4 2.4,2.2 4.2,2 0.4,-0.1 0.9,0.2 1.3,0.5 1,1 1.9,2.1 2.6,3.4 0.5,1 2,1.5 3,2.2 0.5,0.4 0.2,1 0.4,1.3 1.4,2.4 2.1,5.1 2.9,7.8 0.2,0.6 0.2,1.3 -0.5,1.8 -0.8,0.6 -0.7,2 -0.4,2.2 2.3,1.6 2,4 2,6.2 0,0.1 0.2,0.3 0.3,0.4 3.3,1.8 2.5,5 2.7,7.9 0.3,3.6 0.5,3.6 -1.4,6.1 -0.5,0.7 -0.5,0.9 0.1,1.5 0.3,0.3 0.3,0.9 0.2,1.3 -1.3,3.2 -6,7.7 -10,9.3 -1.2,0.5 -2.1,1.3 -2.5,2.2 -0.6,1.2 -1.6,1.6 -2.4,2.5 -1.2,1.2 -2.5,1.3 -3.9,1.7 1.2,1.3 0,2.7 -0.6,3.4 -1.4,1.7 -2.7,4 -5.6,3.3 -0.2,0 -0.4,-0.1 -0.5,0 -2,2.9 -5.1,2.7 -8.2,3.3 -2.1,0.4 -3.8,1 -5.8,-0.1 -1.7,-0.9 -3.7,0.1 -5.7,-0.6 C 35.9,79 34.3,78.3 33,76.7 32,75.4 30.8,74.8 29.2,75.1 28,75.3 27,74.9 26.2,73.9 25.5,73 24.9,73.2 23.8,73.7 21,74.9 18.7,74 17,71.2 16.1,69.4 15.5,70 14.4,71.1 Z M 52.1,52.6 c -1.5,1 -2.5,2.1 -2.1,3.8 0.4,1.4 -0.8,2.4 -0.9,3.6 -0.2,1.3 -1.3,0.7 -1.8,1.2 -0.7,0.8 -0.2,1.9 -0.3,2.9 -0.1,0.6 -0.4,0.7 -0.9,1 -1.8,1.2 -4.1,1.7 -4.5,4.7 -0.2,1.2 -1.8,2.7 -3.9,2.4 -0.9,-0.1 -2,-0.5 -2.8,0.5 1.3,1.2 3.1,-0.1 4.5,1.3 0.9,0.8 3,0.8 4.3,0.7 1.3,-0.1 2.8,-1.1 4.1,-0.9 0.8,0.1 1,-0.1 1.4,-0.4 0.6,-0.5 1,-1.4 2,-1.1 2.1,0.6 2.5,-1.2 3.4,-2.3 1,-1.2 2.9,-2 3.1,-3.7 0.3,-1.9 1.1,-3.2 2.2,-4.6 1.2,-1.6 -0.8,-3.1 -0.1,-4.7 0.1,-0.1 0.1,-0.3 0.2,-0.4 1.3,-1 0.9,-1.9 -0.1,-2.8 -0.6,-0.5 -1.4,-1.1 -1,-2 1.1,-2.5 -3.1,-2.7 -2.1,-5.1 0,0 -0.5,-0.4 -0.8,-0.4 -2.6,0.1 -4.3,-1.7 -6.2,-3.5 -0.8,0.8 -1.5,1.3 -1.9,1.9 -0.5,0.9 0.3,1.5 1,2 1,0.7 1.1,1.6 0.9,2.6 -0.1,1.5 1.2,2.1 2.3,3.3 z M 63.8,33 c -0.7,0 -1.3,0.1 -2,0 -4.5,-0.5 -8.5,0.5 -12.9,2.9 -0.7,0.4 -1,0.7 -0.9,1.3 0.1,0.5 0.5,0.8 1,0.7 1.8,-0.2 3.2,1 5.1,1.1 3.3,0.2 5.6,3.1 8.7,4.2 1.6,0.5 0.9,2.3 1.4,3.4 0.3,0.5 1,1.3 1.4,1.2 1.7,-0.2 1.2,1.2 1.6,1.9 1.2,1.8 0.3,4.5 2.7,5.9 0.3,0.1 0.2,1.5 -0.1,1.8 -1.7,1.5 0.2,1.7 0.7,2.4 0.5,-0.5 1,-0.9 1.4,-1.4 1.4,-2.1 3.2,-4 3.9,-6.3 1.1,-3.8 -0.9,-7.6 -0.9,-11.5 0,-0.2 -0.4,-0.6 -0.6,-0.6 -2.1,-0.2 -3,-2 -4.1,-3.3 -1.9,-2.3 -4,-1.9 -6.2,-1 C 64,34.8 63.9,34 63.8,33 Z m -53.1,7.6 c 1.5,0.5 2.6,0.8 3.2,1.9 1.3,2.2 2.7,4.2 5.5,4.6 1,0.2 0,1.9 1.6,2 1.4,0.1 2.8,-0.5 4.2,0.6 1.4,1.1 3,-0.5 4.3,-0.9 1.8,-0.5 4.6,0.1 5.2,-1.4 0.9,-2.1 3.8,-1.8 4.1,-4.4 -2.5,0 -5,-0.1 -7.5,-0.9 -2.7,-0.9 -4.6,-3.1 -7.4,-3.7 -1.6,-0.4 -0.3,-3 -1.4,-3.2 -1.7,-0.4 -2.7,-1.6 -3.3,-2.7 -0.6,-1.1 -0.8,-2.9 1,-4.2 -3.5,-0.3 -3.4,-2.9 -3.3,-6.2 -3.4,4.7 -7.1,8.2 -5.8,13.7 0.7,0.3 1.8,0.6 1.6,0.7 -1.4,0.9 0,3 -2,4.1 z M 47.4,19 c -0.7,1.1 0.2,2.4 -0.8,3 -1.8,0.9 -2.2,2.6 -3.2,4.1 -0.9,1.3 -1.2,2.5 -1.3,4 -0.1,1.4 0.5,2.6 0.6,3.9 0,0.3 -0.7,0.7 -0.1,1 0.3,0.1 0.8,0.2 1,0 0.8,-0.6 1.9,-1.3 2.1,-2.1 0.5,-1.8 2.4,-1.8 3.2,-3.1 1.1,-1.9 2.9,-1.9 4.8,-1.8 0.2,0 0.5,-0.5 0.7,-0.6 2.6,-1.7 5.8,-1.1 8.5,-2.3 0.6,-0.3 1.5,-0.2 2.3,0.4 2.6,2 5.7,1.6 9.2,1.4 -1,-1.4 -2.5,-2 -2.3,-3.7 0.2,-2 -3,-0.9 -3,-3.2 0,-1.9 -0.9,0 -1.3,-0.1 -0.9,-0.2 -2.2,-0.7 -2.3,-1.2 -0.5,-2 -1.8,-1.7 -3,-1.7 -0.5,0 -1,0.1 -1.5,0 -3.3,-0.5 -6,-0.2 -8.7,1 -1.7,0.8 -3.3,1.3 -4.9,1 z m -4.9,28 c -2,2 -3.9,3.9 -5.9,5.9 -0.6,0.6 -1,1.3 -2,1.1 -1.4,-0.3 -2.4,0.9 -3.5,1.2 -3.1,0.9 -6.5,1.3 -9.7,1.5 -0.7,0 -2.8,-0.7 -2.8,-2.6 C 17.5,55.3 16,55 14.6,55 14,55 14,53.7 13,54.4 c 0,0.9 0,1.9 0,2.9 0,0.6 -0.2,1.5 0.6,1.6 1.9,0.2 1.5,3.1 3.2,2.9 1.5,-0.1 1.8,3.2 3.7,1.1 0.6,3 3.5,1.7 4.8,3 1.5,-0.8 -0.1,-2.4 1.4,-3 0.6,1 -0.2,2.1 0.7,2.9 0.5,-0.5 1,-1.2 2,-1 1.8,0.4 3.7,-0.1 5,-1.1 1.1,-0.8 2.1,-0.7 3.1,-1 1.4,-0.5 1.2,-2.2 2.1,-3.1 0.2,-0.2 0.5,-0.7 0.7,-0.7 1.9,0.1 1.6,-1.1 1.6,-2.3 0,-0.6 -0.3,-1.6 0.5,-1.8 2,-0.6 0.6,-2.2 1.1,-3.2 0.9,-1.5 1,-3.3 -1,-4.6 z M 39.2,38.7 C 38.3,38.1 37.7,37.4 38,36.5 38.4,34.9 36.8,35.4 36.3,34.8 36,34.5 35.9,33.7 36.1,33.5 c 1,-1.4 -0.1,-2.8 0,-4.2 0,-0.8 -0.1,-1.5 0.6,-2.3 0.8,-0.9 -1.2,-1.4 -0.6,-2.4 0.1,-0.1 0,-0.3 0,-0.5 0.3,-1.4 1.7,-1.6 2.7,-2.3 1.4,-1.1 -1.7,-2.1 -0.5,-3.3 1,-1 1.6,-2.6 3.5,-2.4 0.4,0 0.9,-0.3 1.3,-0.5 -1.1,-2.4 2.3,-3 1.9,-5.5 -1.4,0 -2.9,-0.1 -4.4,0 -1.5,0.2 -3.8,-1.1 -4.4,0.7 -0.9,2.6 -2.6,0.4 -3.6,1.2 -0.2,0.2 -0.5,0.6 -0.5,0.8 0.6,1.8 -1.4,1.8 -1.8,2.7 -1.1,2.2 -4.4,3.9 -2.4,7.2 -1.4,0.6 0.3,2 -0.1,2 -2.3,0.3 -1.6,2 -1.7,3.3 l 2.5,4 c 1.6,1.7 2.5,3.9 4.8,5 0.9,0.4 1.4,1.3 2.2,0 0.9,0.6 1.3,2 2.7,2 0.1,0 0.2,-0.1 0.9,-0.3 z" /></g></svg>