<?xml version="1.0" encoding="UTF-8" standalone="no"?>
<svg
   xmlns:dc="http://purl.org/dc/elements/1.1/"
   xmlns:cc="http://creativecommons.org/ns#"
   xmlns:rdf="http://www.w3.org/1999/02/22-rdf-syntax-ns#"
   xmlns:svg="http://www.w3.org/2000/svg"
   xmlns="http://www.w3.org/2000/svg"
   id="svg2"
   version="1.1"
   viewBox="0 0 463.36563 305.70645"
   height="305.70645"
   width="463.36563">
  <metadata
     id="metadata19">
    <rdf:RDF>
      <cc:Work
         rdf:about="">
        <dc:format>image/svg+xml</dc:format>
        <dc:type
           rdf:resource="http://purl.org/dc/dcmitype/StillImage" />
        <dc:title>Group</dc:title>
      </cc:Work>
    </rdf:RDF>
  </metadata>
  <!-- Generator: Sketch 3.7.2 (28276) - http://www.bohemiancoding.com/sketch -->
  <title
     id="title4">Group</title>
  <desc
     id="desc6">Created with Sketch.</desc>
  <defs
     id="defs8" />
  <g
     transform="translate(-0.734375,-0.1)"
     style="fill:#006400;fill-opacity:1;fill-rule:evenodd;stroke:none;stroke-width:1"
     id="Page-1">
    <g
       style="fill:#006400;fill-opacity:1"
       id="Group">
      <path
         style="fill:#006400;fill-opacity:1"
         id="path29"
         d="m 0.734375,147.00755 c 0,-47.06987 16.693303,-89.185021 50.332838,-126.593184 C 63.207797,7.036613 73.32495,0.1 80.154029,0.1 c 2.27636,0 4.552719,0.74320853 6.829079,2.2296256 1.517573,1.4864171 3.035146,3.7160427 3.035146,5.9456683 0,3.7160421 -4.552719,8.9185021 -12.899371,17.3415321 -35.157108,32.948912 -52.862126,73.329909 -52.862126,122.133934 0,54.00649 18.463805,97.36032 54.379699,131.05244 7.587865,6.68888 10.623011,11.89134 10.623011,16.35059 0,2.22962 -1.517573,4.45925 -3.035146,6.68887 -1.517573,1.48642 -4.552719,2.97284 -6.829078,2.97284 -8.346652,0 -19.981378,-9.66171 -35.157108,-28.48966 C 14.645461,240.65183 0.734375,198.04121 0.734375,147.00755 l 0,0 0,0 z" />
      <path
         style="fill:#006400;fill-opacity:1"
         id="path31"
         d="m 464.1,158.89889 c 0,47.06987 -16.6933,89.18502 -50.33284,126.59319 -12.14058,13.37775 -22.25774,20.31436 -29.08681,20.31436 -2.27636,0 -4.55272,-0.74321 -6.82908,-2.22962 -1.51758,-1.48642 -3.03515,-4.45925 -3.03515,-6.68888 0,-3.71604 4.55272,-8.9185 12.89937,-16.35059 35.15711,-32.94891 52.86213,-73.32991 52.86213,-122.13393 0,-54.00649 -18.46381,-97.36032 -54.3797,-131.052441 -7.58787,-6.688876 -10.62301,-11.891336 -10.62301,-16.350587 0,-2.2296258 1.51757,-4.4592514 3.03514,-6.688877 1.51758,-1.486417 4.55272,-2.9728341 6.82908,-2.9728341 7.58787,0 19.98138,9.6617111 35.15711,28.4896601 C 448.67134,65.502351 464.1,108.11297 464.1,158.89889 l 0,0 0,0 z" />
      <g
         style="fill:#006400;fill-opacity:1"
         transform="translate(107.58024,265.72974)"
         id="g33">
        <path
           style="fill:#006400;fill-opacity:1"
           id="path37"
           d="m 231.01815,29.756754 -212.030357,0 c -7.595117,0 -13.2914551,-5.579391 -13.2914551,-13.01858 0,-7.4391882 5.6963381,-13.0185797 13.2914551,-13.0185797 l 212.030357,0 c 7.59512,0 13.29145,5.5793915 13.29145,13.0185797 -1.89878,7.439189 -5.69633,13.01858 -13.29145,13.01858 l 0,0 z" />
      </g>
      <path
         style="fill:#006400;fill-opacity:1"
         id="Shape"
         d="m 187.39585,25.616826 c 0,0 17.70502,11.891337 17.70502,33.69212 0,37.408163 -52.10334,78.532364 -52.10334,117.426944 0,41.86742 32.88075,68.87066 64.24393,77.04596 4.55272,0.7432 6.07029,-3.71605 0.75878,-5.20246 -12.89937,-2.97284 -26.81045,-19.57116 -26.81045,-44.84025 0,-24.03041 23.77531,-32.94891 32.88075,-44.09704 9.86422,-11.89134 7.58786,-27.00325 1.51757,-31.4625 -6.07029,-4.45925 -1.51757,-10.40492 8.34665,-2.97283 9.86422,6.68888 18.4638,20.31437 15.17573,32.2057 -3.79393,15.60738 1.51757,24.77362 9.86422,26.26004 8.34666,1.48641 17.70502,-2.97284 16.69331,-10.40492 -1.01172,-7.43209 -5.31151,-15.60738 -3.03515,-15.60738 6.07029,0 18.46381,14.12096 18.46381,37.40816 0,23.2872 -19.22259,38.89458 -25.29289,44.84025 -3.79393,3.71604 0.75879,8.17529 6.0703,5.94567 2.27635,-0.74321 7.58786,-3.71605 10.62301,-5.94567 15.17573,-10.40492 38.95104,-32.2057 38.95104,-71.84349 0,-41.86742 -15.93452,-60.69536 -32.88075,-76.302744 -16.6933,-15.60738 -20.74017,-11.891337 -15.93452,-3.716043 13.65816,23.287197 5.31151,31.462497 -4.55272,31.462497 -12.14058,0 -12.14058,-26.260037 -17.70502,-46.326668 -9.86422,-44.840248 -52.10334,-52.520069 -59.6912,-53.263278 -5.56444,-2.477362 -12.64644,1.98189 -3.28808,5.697932 l 0,0 z" />
    </g>
  </g>
</svg>
