<?xml version="1.0" standalone="no"?>
<!DOCTYPE svg PUBLIC "-//W3C//DTD SVG 20010904//EN"
 "http://www.w3.org/TR/2001/REC-SVG-20010904/DTD/svg10.dtd">
<svg version="1.0" xmlns="http://www.w3.org/2000/svg"
 width="550.000000pt" height="550.000000pt" viewBox="0 0 550.000000 550.000000"
 preserveAspectRatio="xMidYMid meet">
<metadata>
Created by potrace 1.11, written by Peter Selinger 2001-2013
</metadata>
<g transform="translate(0.000000,550.000000) scale(0.100000,-0.100000)"
fill="#000000" stroke="none">
<path d="M713 3669 c-129 -22 -208 -74 -238 -158 -19 -56 -19 -99 1 -301 15
-150 15 -168 1 -202 -21 -49 -80 -79 -169 -86 l-68 -5 0 -117 0 -117 69 -5
c51 -4 82 -12 115 -32 68 -40 72 -65 51 -271 -10 -91 -15 -190 -12 -220 15
-146 118 -218 334 -232 l93 -6 0 100 0 100 -54 6 c-108 11 -119 34 -100 213
27 260 16 331 -60 389 -38 29 -125 65 -156 65 -33 0 -23 17 13 23 82 13 177
80 203 144 18 41 17 143 -1 311 -9 88 -11 142 -4 158 11 30 64 54 119 54 l40
0 0 100 0 100 -62 -1 c-35 -1 -86 -5 -115 -10z"/>
<path d="M4610 3582 l0 -102 41 0 c55 0 105 -25 117 -59 7 -19 5 -70 -4 -157
-20 -195 -19 -271 9 -324 27 -56 97 -104 172 -121 54 -12 74 -29 35 -29 -29 0
-99 -29 -147 -62 -84 -57 -97 -129 -68 -397 12 -116 12 -138 0 -161 -16 -31
-60 -50 -116 -50 l-39 0 0 -102 0 -101 93 6 c230 15 337 98 337 264 0 21 -7
115 -17 209 -17 168 -17 171 3 205 25 43 106 78 182 79 l52 0 0 119 0 118 -67
5 c-86 6 -148 36 -170 83 -15 32 -15 47 2 215 10 99 15 202 12 229 -17 144
-120 214 -334 228 l-93 6 0 -101z"/>
<path d="M2620 2805 l0 -825 130 0 130 0 0 825 0 825 -130 0 -130 0 0 -825z"/>
<path d="M1544 3435 c-129 -28 -243 -106 -292 -199 -24 -46 -27 -62 -27 -151
0 -89 3 -105 27 -151 52 -99 157 -167 358 -233 176 -58 232 -102 232 -183 0
-62 -24 -103 -75 -130 -36 -20 -57 -23 -142 -22 -115 0 -179 19 -270 79 l-56
37 -57 -62 c-89 -98 -89 -98 -61 -125 41 -40 140 -94 224 -122 72 -24 96 -27
230 -27 129 -1 160 2 221 21 87 28 183 90 224 146 54 73 72 140 68 242 -10
200 -96 286 -386 386 -165 57 -210 82 -229 127 -21 52 -5 103 44 133 83 52
273 30 373 -42 l44 -32 39 44 c21 24 51 60 68 80 l29 37 -37 32 c-118 104
-364 155 -549 115z"/>
<path d="M3380 2795 l0 -625 150 0 150 0 0 265 0 265 150 0 150 0 0 -265 0
-265 150 0 150 0 -2 623 -3 622 -147 3 -148 3 0 -241 0 -240 -150 0 -150 0 0
240 0 240 -150 0 -150 0 0 -625z"/>
</g>
</svg>
